<?xml version="1.0" encoding="UTF-8"?>
<svg version="1.1" xmlns="http://www.w3.org/2000/svg" width="480" height="480">
<path d="M0 0 C158.4 0 316.8 0 480 0 C480 158.4 480 316.8 480 480 C321.6 480 163.2 480 0 480 C0 321.6 0 163.2 0 0 Z " fill="#FEFEFE" transform="translate(0,0)"/>
<path d="M0 0 C16.88442449 12.54813569 27.68219355 27.67068127 30.875 48.75 C31.25512211 54.30505298 31.25706872 59.82867264 31.21557617 65.39404297 C31.21472767 67.01185083 31.21520938 68.62965984 31.21690369 70.24746704 C31.21775638 74.59371086 31.20024983 78.9397009 31.17918181 83.28588629 C31.16029244 87.84488445 31.15865499 92.40388989 31.15510559 96.96292114 C31.14582086 105.57567361 31.12125598 114.18831039 31.09105712 122.80101216 C31.05740122 132.6149185 31.0409991 142.42883067 31.02597082 152.24278045 C30.99470282 172.41191969 30.94140071 192.58094844 30.875 212.75 C23.285 212.75 15.695 212.75 7.875 212.75 C7.875 177.11 7.875 141.47 7.875 104.75 C-5.985 104.75 -19.845 104.75 -34.125 104.75 C-40.94642857 97.92857143 -40.94642857 97.92857143 -41.4375 91.9375 C-41.36476647 87.54116191 -40.07165267 85.08437012 -37.125 81.75 C-32.02281076 78.48589351 -27.85661328 78.34687321 -22.0078125 78.45703125 C-21.15065643 78.46127609 -20.29350037 78.46552094 -19.41036987 78.46989441 C-16.68991836 78.48660114 -13.97022518 78.52423781 -11.25 78.5625 C-9.39844825 78.57755722 -7.54688481 78.5912438 -5.6953125 78.60351562 C-1.17158567 78.63647835 3.35157887 78.68820463 7.875 78.75 C7.71042597 74.26834472 7.51574184 69.78922462 7.29516602 65.31005859 C7.22440627 63.79185293 7.16134766 62.27326512 7.10668945 60.75439453 C6.57912266 46.35324689 3.56294328 33.92505933 -7.30859375 23.6953125 C-19.06662777 13.72449965 -29.89773145 9.87395422 -45.125 10.75 C-58.53685363 12.80713214 -69.67105487 18.53624296 -77.8125 29.4375 C-82.60455953 36.55559293 -86.20528163 45.2670959 -86.28321838 53.95147705 C-86.29790161 55.19660568 -86.29790161 55.19660568 -86.31288147 56.46688843 C-86.31863693 57.3688797 -86.3243924 58.27087097 -86.33032227 59.20019531 C-86.34517166 60.63484634 -86.34517166 60.63484634 -86.36032104 62.09848022 C-86.3918965 65.25833668 -86.41667792 68.41820816 -86.44140625 71.578125 C-86.46197918 73.76959625 -86.48297575 75.96106356 -86.50437927 78.15252686 C-86.55956485 83.9195639 -86.60898967 89.68663655 -86.65722656 95.45373535 C-86.7074672 101.33898079 -86.7631399 107.22417454 -86.81835938 113.109375 C-86.92589799 124.65620584 -87.02735255 136.20308157 -87.125 147.75 C-85.39999268 147.72643433 -85.39999268 147.72643433 -83.64013672 147.70239258 C-79.35749363 147.64793132 -75.07488094 147.61359114 -70.79199219 147.58520508 C-68.94135381 147.57015529 -67.09075089 147.54971067 -65.24023438 147.52368164 C-62.57412955 147.4871302 -59.90849792 147.47023546 -57.2421875 147.45703125 C-56.42007782 147.44154739 -55.59796814 147.42606354 -54.75094604 147.41011047 C-49.78125634 147.40866742 -46.45150349 148.03524978 -42.125 150.75 C-39.15056966 153.7307321 -38.67115479 156.02779976 -38.625 160.1875 C-38.72458614 164.33692233 -38.87115718 165.42267636 -41.5 168.8125 C-42.36625 169.451875 -43.2325 170.09125 -44.125 170.75 C-44.785 171.41 -45.445 172.07 -46.125 172.75 C-49.20940856 172.92548636 -52.20539101 172.98137053 -55.2890625 172.9453125 C-56.09303467 172.94329834 -56.89700684 172.94128418 -57.7253418 172.93920898 C-60.73361909 172.92873113 -63.74181517 172.90080859 -66.75 172.875 C-76.835625 172.813125 -76.835625 172.813125 -87.125 172.75 C-87.125 186.28 -87.125 199.81 -87.125 213.75 C-95.045 213.75 -102.965 213.75 -111.125 213.75 C-111.19460268 192.73925063 -111.24806341 171.72852928 -111.28043652 150.71768761 C-111.29587094 140.96084022 -111.31689459 131.20406602 -111.35131836 121.44726562 C-111.38132599 112.93804676 -111.40059986 104.42888093 -111.40726548 95.91961062 C-111.41115858 91.41872565 -111.4202356 86.91799233 -111.44219017 82.41715622 C-111.46273536 78.17036262 -111.46879785 73.92378141 -111.46432304 69.67694283 C-111.46514026 68.12830636 -111.4709976 66.5796619 -111.48261642 65.0310688 C-111.6357606 43.54366391 -106.30933395 24.64058204 -91.125 8.75 C-82.52271681 1.05838197 -73.31726075 -5.95122841 -62.125 -9.25 C-61.20460937 -9.5284375 -60.28421875 -9.806875 -59.3359375 -10.09375 C-39.08237259 -15.52150437 -17.46692314 -11.76232927 0 0 Z " fill="#4C4839" transform="translate(278.125,118.25)"/>
<path d="M0 0 C0.88429688 0.73089844 1.76859375 1.46179688 2.6796875 2.21484375 C12.64904936 10.80216011 21.34806729 21.04110927 27 33 C27 33.99 27 34.98 27 36 C27.66 36 28.32 36 29 36 C31.82882644 43.02993463 34.44817354 50.09402681 36.75 57.3125 C36.96035889 57.95703125 37.17071777 58.6015625 37.38745117 59.265625 C40.42314586 68.97984799 40.13847228 78.71795839 40.11352539 88.77929688 C40.113243 90.37651569 40.11340226 91.97373463 40.1139679 93.57095337 C40.11425385 97.88853523 40.1083898 102.2060891 40.10139394 106.52366447 C40.09512674 111.04267102 40.09455394 115.56167826 40.09336853 120.08068848 C40.09026513 128.62984272 40.08206512 137.17898412 40.07201904 145.72813272 C40.0608271 155.46452785 40.0553397 165.20092361 40.05032361 174.93732357 C40.03988166 194.95822307 40.02209911 214.97911027 40 235 C32.08 235 24.16 235 16 235 C15.99635437 232.88878754 15.99270874 230.77757507 15.98895264 228.60238647 C15.95266176 208.68099302 15.89439616 188.75974945 15.81609726 168.83847618 C15.77636952 158.59739308 15.74394527 148.35638612 15.72900391 138.11523438 C15.71595484 129.1840268 15.68890746 120.25298721 15.64538693 111.32187426 C15.62284511 106.59744135 15.60708493 101.87321506 15.60811615 97.1487236 C15.60886709 92.69167603 15.5907439 88.23508395 15.55883217 83.77815437 C15.55039145 82.15214812 15.54854307 80.52609043 15.55419731 78.9000721 C15.62105527 56.69667482 7.9169354 38.04603815 -7.234375 21.5703125 C-22.15295382 7.10229478 -41.79246419 -0.25156272 -62.3125 -0.125 C-63.14136719 -0.12016602 -63.97023438 -0.11533203 -64.82421875 -0.11035156 C-75.68049208 -0.00466354 -84.93496934 0.60582732 -95 5 C-95.83273438 5.3609375 -96.66546875 5.721875 -97.5234375 6.09375 C-111.92122619 12.81574598 -123.70676418 23.49715645 -132 37 C-132.60972656 37.98097656 -133.21945313 38.96195313 -133.84765625 39.97265625 C-145.36409032 60.48706854 -143.61282879 85.16548481 -143.60750484 107.94317961 C-143.61067628 112.42479925 -143.63638039 116.90629469 -143.65948486 121.3878479 C-143.69972943 129.83736357 -143.72031049 138.28680271 -143.73345876 146.73639929 C-143.74943696 156.3716187 -143.78789678 166.00670981 -143.82805204 175.64185405 C-143.91001824 195.42786315 -143.963582 215.21385907 -144 235 C-151.26 235 -158.52 235 -166 235 C-166.09288918 213.14566213 -166.16412791 191.29137238 -166.20724869 169.4368763 C-166.22780917 159.28776421 -166.25580409 149.1387776 -166.30175781 138.98974609 C-166.34182622 130.13622823 -166.36748006 121.28280131 -166.37635398 112.42919528 C-166.38153511 107.74816484 -166.39357414 103.0673944 -166.42292023 98.38644791 C-166.45040679 93.96559794 -166.45837916 89.54511096 -166.45243073 85.12418365 C-166.45351631 83.51594178 -166.46126985 81.90768563 -166.4768219 80.29951859 C-166.62250928 64.4340615 -164.04212454 49.35193217 -157 35 C-156.55914062 34.09121094 -156.11828125 33.18242187 -155.6640625 32.24609375 C-142.63759842 6.94884445 -120.39087686 -11.41534741 -93.5 -20.25 C-59.62248156 -29.94082768 -26.75688028 -22.32068733 0 0 Z " fill="#4E4A3B" transform="translate(302,97)"/>
<path d="M0 0 C0.97610229 -0.0038269 1.95220459 -0.00765381 2.95788574 -0.01159668 C5.01539139 -0.01431074 7.07293184 -0.00698509 9.13037109 0.00976562 C12.27129382 0.03118211 15.40992927 0.00994636 18.55078125 -0.015625 C20.55469253 -0.01298163 22.55860238 -0.00785648 24.5625 0 C25.96429504 -0.01214539 25.96429504 -0.01214539 27.39440918 -0.02453613 C34.37961666 0.07542135 37.9758465 1.94732573 43.15625 6.71875 C45.47223824 10.72719119 45.9325107 14.02339155 44.78125 18.53125 C42.77257631 21.56465316 40.42615152 24.04491572 37.78125 26.53125 C37.28625 27.02625 37.28625 27.02625 36.78125 27.53125 C35.37073921 27.63972273 33.95490686 27.68026153 32.5402832 27.69238281 C31.63877029 27.70199036 30.73725739 27.7115979 29.8084259 27.72149658 C28.82621567 27.72574646 27.84400543 27.72999634 26.83203125 27.734375 C25.32397163 27.74292511 25.32397163 27.74292511 23.78544617 27.75164795 C21.65100157 27.76111677 19.51654222 27.76763936 17.38208008 27.77148438 C14.12489987 27.78115749 10.86835917 27.81214991 7.61132812 27.84375 C5.53906625 27.85028303 3.46679986 27.85553232 1.39453125 27.859375 C-0.06360237 27.8778952 -0.06360237 27.8778952 -1.55119324 27.89678955 C-6.83569646 27.87949993 -10.69974745 27.60433568 -15.21875 24.53125 C-16.59375 21.84375 -16.59375 21.84375 -17.21875 19.53125 C-17.87875 19.53125 -18.53875 19.53125 -19.21875 19.53125 C-19.56253616 13.80148063 -19.62862104 9.41873183 -16.21875 4.53125 C-10.96619943 0.00718556 -6.60896238 -0.05726115 0 0 Z " fill="#504C3D" transform="translate(227.21875,230.46875)"/>
<path d="M0 0 C2.64 0 5.28 0 8 0 C11.26332194 6.30958807 14.06428873 12.73819374 16.75 19.3125 C17.16121094 20.30056641 17.57242188 21.28863281 17.99609375 22.30664062 C18.57810547 23.72686523 18.57810547 23.72686523 19.171875 25.17578125 C19.6992627 26.45835815 19.6992627 26.45835815 20.23730469 27.7668457 C21 30 21 30 21 33 C18.36 33 15.72 33 13 33 C12.01 31.02 11.02 29.04 10 27 C6.04 27 2.08 27 -2 27 C-2.99 28.98 -3.98 30.96 -5 33 C-7.64 33 -10.28 33 -13 33 C-10.66737643 25.63014946 -7.8202139 18.55561321 -4.8125 11.4375 C-4.11737305 9.78137695 -4.11737305 9.78137695 -3.40820312 8.09179688 C-2.27506147 5.39328426 -1.1389372 2.69607042 0 0 Z " fill="#514C3E" transform="translate(164,356)"/>
<path d="M0 0 C3.07469523 1.70251719 5.40613254 3.81226508 7 7 C7 9.31 7 11.62 7 14 C1.72 14 -3.56 14 -9 14 C-8.01 15.485 -8.01 15.485 -7 17 C-4.4233497 17.21214273 -1.9867705 16.99464652 0.58984375 16.8125 C3 17 3 17 4.81640625 18.5 C5.20699219 18.995 5.59757812 19.49 6 20 C3.52552769 22.71013633 1.66412567 23.83795031 -2.0859375 24.203125 C-6.8735888 24.30116564 -10.18279249 24.23884274 -14 21 C-16.7083194 16.56296609 -16.80384618 12.05388437 -16 7 C-12.36269917 0.25273936 -7.19613652 -1.11081302 0 0 Z " fill="#504B3C" transform="translate(297,365)"/>
<path d="M0 0 C3.0717718 1.71077974 5.40485654 3.80971307 7 7 C7 9.31 7 11.62 7 14 C1.72 14 -3.56 14 -9 14 C-8.01 15.485 -8.01 15.485 -7 17 C-3.54178598 17.25003964 -3.54178598 17.25003964 0 17 C3 17 3 17 4.6875 18.5 C5.120625 18.995 5.55375 19.49 6 20 C3.53119954 22.70392431 1.65781254 23.77895833 -2.05078125 24.2734375 C-6.31853138 24.46508086 -9.1159053 24.41093753 -12.5 21.625 C-16.35809208 17.57400331 -16.33604587 14.90704804 -16.2890625 9.48046875 C-15.88350874 6.00037908 -14.55189308 4.33315939 -12 2 C-7.97818385 -0.68121076 -4.72763609 -0.81344335 0 0 Z " fill="#4F4A3C" transform="translate(229,365)"/>
<path d="M0 0 C2.31 0 4.62 0 7 0 C7 1.98 7 3.96 7 6 C8.98 6 10.96 6 13 6 C13 7.65 13 9.3 13 11 C11.02 11 9.04 11 7 11 C7.33 14.63 7.66 18.26 8 22 C9.65 22.33 11.3 22.66 13 23 C13.042721 24.66611905 13.04063832 26.33382885 13 28 C11.1496801 29.8503199 8.57527918 29.29140132 6.10546875 29.42578125 C2.95019999 28.78770278 1.86976615 27.59435259 0 25 C-0.390625 21.546875 -0.390625 21.546875 -0.25 17.75 C-0.21390625 16.48671875 -0.1778125 15.2234375 -0.140625 13.921875 C-0.09421875 12.95765625 -0.0478125 11.9934375 0 11 C-0.99 11 -1.98 11 -3 11 C-3 9.35 -3 7.7 -3 6 C-2.01 6 -1.02 6 0 6 C0 4.02 0 2.04 0 0 Z " fill="#4F4A3C" transform="translate(193,360)"/>
<path d="M0 0 C2.64 0 5.28 0 8 0 C8 0.66 8 1.32 8 2 C8.99 1.34 9.98 0.68 11 0 C12.32 0 13.64 0 15 0 C15 2.31 15 4.62 15 7 C13.02 7.66 11.04 8.32 9 9 C8.67 13.95 8.34 18.9 8 24 C5.36 24 2.72 24 0 24 C0 16.08 0 8.16 0 0 Z " fill="#5A5648" transform="translate(313,365)"/>
<path d="M0 0 C2.31 0 4.62 0 7 0 C7 11.22 7 22.44 7 34 C4.69 34 2.38 34 0 34 C0 22.78 0 11.56 0 0 Z " fill="#4A4536" transform="translate(246,354)"/>
<path d="M0 0 C2.31 0 4.62 0 7 0 C7 7.26 7 14.52 7 22 C4.69 22 2.38 22 0 22 C0 14.74 0 7.48 0 0 Z " fill="#4A4536" transform="translate(264,366)"/>
<path d="M0 0 C2 0.6875 2 0.6875 4 2.6875 C3.63318342 5.62203261 3.13562754 6.55187246 1 8.6875 C-1.93453261 8.32068342 -2.86437246 7.82312754 -5 5.6875 C-4.75 3.125 -4.75 3.125 -4 0.6875 C-2 -0.3125 -2 -0.3125 0 0 Z " fill="#5A5548" transform="translate(268,354.3125)"/>
<path d="M0 0 C0.66 0 1.32 0 2 0 C2.99 3.3 3.98 6.6 5 10 C2.36 10 -0.28 10 -3 10 C-2.01 6.7 -1.02 3.4 0 0 Z " fill="#EAEAE8" transform="translate(167,366)"/>
<path d="M0 0 C5.28 0 10.56 0 16 0 C16 0.33 16 0.66 16 1 C14.8553125 1.185625 14.8553125 1.185625 13.6875 1.375 C10.79732864 1.88102792 10.79732864 1.88102792 8 4 C4.8125 4.125 4.8125 4.125 2 4 C1.34 2.68 0.68 1.36 0 0 Z " fill="#ECECEB" transform="translate(288,379)"/>
<path d="M0 0 C5.28 0 10.56 0 16 0 C16 0.33 16 0.66 16 1 C15.030625 1.12375 14.06125 1.2475 13.0625 1.375 C11.5465625 1.684375 11.5465625 1.684375 10 2 C9.67 2.66 9.34 3.32 9 4 C6.69 4 4.38 4 2 4 C1.34 2.68 0.68 1.36 0 0 Z " fill="#EDEDEC" transform="translate(220,379)"/>
<path d="M0 0 C2.5625 0.1875 2.5625 0.1875 4.5625 2.1875 C4.5625 3.1775 4.5625 4.1675 4.5625 5.1875 C1.5925 5.1875 -1.3775 5.1875 -4.4375 5.1875 C-3.20220588 0.24632353 -3.20220588 0.24632353 0 0 Z " fill="#DEDDDA" transform="translate(292.4375,369.8125)"/>
<path d="M0 0 C0.33 1.32 0.66 2.64 1 4 C-1.97 4 -4.94 4 -8 4 C-7.67 2.68 -7.34 1.36 -7 0 C-4.3333581 -1.33332095 -2.83319697 -0.67102033 0 0 Z " fill="#DFDFDC" transform="translate(228,371)"/>
<path d="M0 0 C0.66 0.33 1.32 0.66 2 1 C-2.29 5.29 -6.58 9.58 -11 14 C-11 9.82308582 -8.77013484 7.86318847 -6 5 C-4.05228995 3.24842937 -2.05675499 1.62627139 0 0 Z " fill="#D8D7D4" transform="translate(211,136)"/>
<path d="M0 0 C0.66 0.33 1.32 0.66 2 1 C-1.96 4.96 -5.92 8.92 -10 13 C-10.66 12.67 -11.32 12.34 -12 12 C-8.57833482 7.29521038 -4.42094803 3.72346836 0 0 Z " fill="#696659" transform="translate(195,120)"/>
<path d="M0 0 C0.66 0.33 1.32 0.66 2 1 C-0.31 3.31 -2.62 5.62 -5 8 C-5.33 7.34 -5.66 6.68 -6 6 C-4 4 -2 2 0 0 Z " fill="#6E6B5F" transform="translate(215,232)"/>
</svg>
